<svg width="229" height="217" viewBox="0 0 229 217" fill="none" xmlns="http://www.w3.org/2000/svg">
<path d="M114 19C64.292 19 24 59.3002 24 109C24 158.7 64.292 199 114 199C163.708 199 204 158.7 204 109C204 59.3002 163.708 19 114 19ZM62.6526 80.8755V80.2494C75.232 78.6924 82.6627 71.2618 84.2197 58.6824H84.8458C86.4027 71.2618 93.8334 78.6924 106.413 80.2494V80.8755C93.8334 82.4325 86.4027 89.8632 84.8458 102.443H84.2197C82.6627 89.8632 75.232 82.4325 62.6526 80.8755ZM168.173 120.508C143.294 123.589 128.589 138.294 125.508 163.173H124.265C121.184 138.294 106.479 123.598 81.6 120.508V119.265C106.479 116.184 121.175 101.479 124.265 76.6H125.508C128.589 101.479 143.294 116.184 168.173 119.265V120.508Z" fill="#EC1218"/>
</svg>
