<svg width="229" height="217" viewBox="0 0 229 217" fill="none" xmlns="http://www.w3.org/2000/svg">
<circle cx="114" cy="109" r="90" fill="#ED2226"/>
<path d="M173.583 92.7486C175.02 92.7486 176.398 92.1779 177.413 91.162C178.429 90.1462 179 88.7684 179 87.3318V71.0815C179 69.9683 178.656 68.8823 178.016 67.9712C177.377 67.0601 176.472 66.3682 175.425 65.9898L115.842 44.3227C114.652 43.8924 113.348 43.8924 112.158 44.3227L52.575 65.9898C51.5281 66.3682 50.6233 67.0601 49.9836 67.9712C49.3439 68.8823 49.0005 69.9683 49 71.0815V87.3318C49 88.7684 49.5707 90.1462 50.5865 91.162C51.6023 92.1779 52.9801 92.7486 54.4167 92.7486H59.8333V163.166H49V174H179V163.166H168.167V92.7486H173.583ZM59.8333 74.8732L114 55.1562L168.167 74.8732V81.915H59.8333V74.8732ZM124.833 163.166H103.167V92.7486H124.833V163.166ZM70.6667 92.7486H92.3333V163.166H70.6667V92.7486ZM157.333 163.166H135.667V92.7486H157.333V163.166Z" fill="white"/>
</svg>
