<svg width="229" height="217" viewBox="0 0 229 217" fill="none" xmlns="http://www.w3.org/2000/svg">
<g clip-path="url(#clip0_43_9)">
<path d="M115 19C65.3776 19 25 59.2417 25 109C25 158.622 65.2417 199 115 199C164.622 199 205 158.758 205 109C205 59.2417 164.622 19 115 19ZM175.77 124.77C175.77 130.208 172.643 134.967 166.526 136.054C155.921 137.958 133.625 139.045 115 139.045C96.3746 139.045 74.0785 137.958 63.4743 136.054C57.3565 134.967 54.2296 130.208 54.2296 124.77V89.6949C54.2296 84.2568 58.4441 79.2266 63.4743 78.4109C66.6012 77.8671 73.9426 77.3233 79.6526 77.3233C81.8278 77.3233 83.5952 78.9547 83.5952 81.5378V106.145L115.136 105.465L146.677 106.145V81.5378C146.677 78.9547 148.444 77.3233 150.619 77.3233C156.329 77.3233 163.671 77.8671 166.798 78.4109C171.964 79.2266 176.042 84.2568 176.042 89.6949C175.77 101.251 175.77 113.079 175.77 124.77Z" fill="#ED2226"/>
</g>
<defs>
<clipPath id="clip0_43_9">
<rect width="180" height="180" fill="white" transform="translate(25 19)"/>
</clipPath>
</defs>
</svg>
